<svg width="120" height="120" viewBox="0 0 120 120" fill="none" xmlns="http://www.w3.org/2000/svg">

    <g id="htmlSvg">
        <path d="M22.1325 102.004L13.7063 7.5H106.294L97.8563 101.989L59.9438 112.5L22.1325 102.004Z" fill="#E44F26"/>
        <path d="M60 104.468L90.6375 95.9738L97.845 15.2288H60V104.468Z" fill="#F1662A"/>
        <path d="M60 50.2763H44.6625L43.605 38.4075H60V26.8163H30.9375L31.215 29.9288L34.0613 61.8675H60V50.2763ZM60 80.3775L59.9475 80.3925L47.04 76.9088L46.215 67.665H34.5787L36.2025 85.86L59.9475 92.4525L60 92.4375V80.3775Z" fill="#EBEBEB"/>
        <path d="M59.9587 50.2763V61.8675H74.2312L72.8887 76.9013L59.9587 80.3888V92.4488L83.7225 85.86L83.895 83.9025L86.6175 53.3888L86.9025 50.2763H59.9587ZM59.9587 26.8163V38.4075H87.9562L88.1887 35.805L88.7175 29.9288L88.995 26.8163H59.9587Z" fill="white"/>
    </g>

    <g id="jsSvg">
        <path d="M7.5 7.5H112.5V112.5H7.5V7.5Z" fill="#F5DE19"/>
        <path d="M78.0338 89.5312C78.9284 91.3485 80.3183 92.8759 82.0434 93.9375C83.7684 94.9991 85.7584 95.5515 87.7838 95.5313C91.8713 95.5313 94.485 93.4875 94.485 90.6562C94.485 87.2812 91.8 86.0738 87.3 84.105L84.8325 83.0475C77.7075 80.0138 72.9825 76.215 72.9825 68.1825C72.9825 60.7838 78.6075 55.1475 87.4313 55.1475C90.2877 54.9412 93.1416 55.5805 95.637 56.9856C98.1324 58.3907 100.159 60.4994 101.464 63.0488L93.75 67.98C93.2476 66.716 92.3728 65.6345 91.2416 64.879C90.1105 64.1236 88.7764 63.7298 87.4163 63.75C86.8229 63.6906 86.2236 63.7555 85.6567 63.9404C85.0897 64.1254 84.5675 64.4265 84.1234 64.8244C83.6792 65.2224 83.3228 65.7085 83.0769 66.2518C82.831 66.7951 82.7009 67.3837 82.695 67.98C82.695 70.9388 84.5288 72.1388 88.7625 73.98L91.23 75.0375C99.615 78.6338 104.355 82.2975 104.355 90.5363C104.355 99.42 97.3763 104.287 88.005 104.287C84.3537 104.52 80.713 103.691 77.5223 101.901C74.3317 100.11 71.7274 97.4342 70.0238 94.1963L78.0338 89.5312ZM43.1775 90.3863C44.7263 93.135 46.1363 95.46 49.5263 95.46C52.7663 95.46 54.8138 94.1925 54.8138 89.2612V55.71H64.68V89.3925C64.68 99.6075 58.68 104.257 49.9463 104.257C46.8591 104.426 43.7931 103.657 41.1513 102.051C38.5096 100.444 36.4157 98.0761 35.145 95.2575L43.1775 90.3863Z" fill="black"/>
    </g>

<!-- width="2500" height="2500" viewBox="0 0 256 256" -->
    <g id="mobxSvg">
        <path d="M256 236.394V19.607c0-8.894-5.923-16.4-14.037-18.8l-9.215 5.514-102.265 109.037-3.206 10.021-1.873 9.62 31.89 119.18 4.933 1.82h74.167c10.828 0 19.606-8.777 19.606-19.605" fill="#EA6618"/><path d="M0 19.606v216.787c0 6.705 3.367 12.62 8.5 16.155l6.287-3.01 108.246-115.894 4.244-8.265.159-7.99L97.976 5.306 93.513 0H19.606C8.778 0 0 8.778 0 19.606" fill="#d65813"/><path d="M127.277 125.38L241.963.806a19.595 19.595 0 0 0-5.57-.807H93.515l33.763 125.38z" fill="#e05e11"/><path d="M19.606 256h142.622l-34.951-130.621L8.499 252.549A19.511 19.511 0 0 0 19.606 256" fill="#de5c16"/><path d="M94.918 97.03h14.225c5.668 21.386 12.119 40.152 19.316 57.085 8.152-19.05 14.127-37.83 19.185-57.086h13.442c-6.02 23.926-15.868 48.04-27.132 72.93h-11.89c-10.82-23.586-20.03-47.837-27.146-72.93zm-46.92-37.055h31.63v135.637h-31.77v-10.456H67.33V70.152H47.998V59.975zm160.169 10.177h-19.332v115.004h19.47v10.456h-31.769V59.975h31.63v10.177z" fill="#FFF"/>
    </g>

    <!-- width="2500" height="2500" viewBox="0 0 256 256"-->
    <g id="reduxSvg">
        <g clip-path="url(#clip0_1_3276)">
            <path d="M83.1473 82.6013C87.5756 82.1428 90.9352 78.3253 90.7823 73.7438C90.63 69.1627 86.812 65.4975 82.2309 65.4975H81.9258C77.1914 65.6503 73.5267 69.6207 73.6795 74.3546C73.8323 76.6453 74.7483 78.6305 76.1227 80.0049C70.9308 90.2368 62.9902 97.7194 51.0792 103.98C42.9858 108.256 34.5872 109.784 26.1886 108.715C19.3167 107.798 13.972 104.745 10.612 99.7046C5.72578 92.2219 5.26781 84.128 9.39093 76.0346C12.2925 70.2314 16.8731 65.9555 19.7747 63.8175C19.1639 61.8324 18.2475 58.4728 17.7895 56.0297C-4.35282 72.0643 -2.06204 93.7491 4.65703 103.98C9.69609 111.616 19.9275 116.35 31.2276 116.35C34.2816 116.35 37.3355 116.045 40.3898 115.282C59.9362 111.464 74.7487 99.8574 83.1473 82.6013ZM110.024 63.6652C98.4178 50.0738 81.315 42.5911 61.7686 42.5911H59.3255C57.9511 39.8424 55.0495 38.0096 51.8428 38.0096H51.5372C46.8037 38.1624 43.1391 42.1327 43.2914 46.8671C43.4442 51.4482 47.2617 55.1133 51.8428 55.1133H52.148C55.5075 54.9605 58.4091 52.8225 59.6306 49.921H62.3794C73.9852 49.921 84.9797 53.2805 94.9059 59.8472C102.541 64.8868 108.038 71.4535 111.092 79.3941C113.688 85.808 113.535 92.0691 110.787 97.4143C106.511 105.508 99.3342 109.936 89.8664 109.936C83.7581 109.936 77.9555 108.104 74.9011 106.729C73.2216 108.256 70.1672 110.7 68.0292 112.227C74.5959 115.281 81.315 116.961 87.7284 116.961C102.388 116.961 113.23 108.867 117.353 100.774C121.782 91.9163 121.476 76.6453 110.024 63.6652ZM32.4492 85.1968C32.602 89.7783 36.4195 93.443 41.0006 93.443H41.3062C46.0401 93.2907 49.7048 89.3199 49.552 84.586C49.3997 80.0044 45.5817 76.3397 41.0006 76.3397H40.6955C40.3898 76.3397 39.9314 76.3397 39.6267 76.4921C33.3656 66.1078 30.7697 54.8077 31.6861 42.5907C32.2964 33.428 35.3508 25.4869 40.6955 18.9202C45.1237 13.2699 53.6751 10.5211 59.4783 10.3688C75.6647 10.0632 82.5361 30.2208 82.9945 38.3147C84.9797 38.7727 88.3392 39.8419 90.63 40.6055C88.7972 15.8668 73.5267 3.03894 58.8675 3.03894C45.1237 3.03894 32.4492 12.9652 27.4097 27.6253C20.3855 47.1722 24.9666 65.9555 33.518 80.7685C32.7548 81.8372 32.2964 83.5172 32.4492 85.1972V85.1968Z" fill="#764ABC"/>
        </g>
        <defs>
            <clipPath id="clip0_1_3276">
                <rect width="120" height="120" fill="white"/>
            </clipPath>
        </defs>
    </g>
    <!-- width="105" height="105" viewBox="0 0 105 105" -->
    <g id="gitSvg">
        <g clip-path="url(#clip0_2_5868)">
            <path d="M103.02 47.8219L57.1758 1.98038C54.5372 -0.6598 50.2552 -0.6598 47.6134 1.98038L38.0937 11.5001L50.1699 23.5763C52.9762 22.6281 56.1943 23.2642 58.4313 25.5012C60.6789 27.7525 61.3106 30.9981 60.3393 33.8134L71.9775 45.452C74.7932 44.482 78.0421 45.1095 80.291 47.3621C83.434 50.5039 83.434 55.596 80.291 58.7399C77.1471 61.8841 72.055 61.8841 68.9095 58.7399C66.5454 56.3733 65.9613 52.9013 67.1582 49.9888L56.3046 39.1352L56.3034 67.6973C57.0902 68.0863 57.8088 68.6002 58.4313 69.2189C61.5743 72.3607 61.5743 77.4532 58.4313 80.5995C55.2874 83.7422 50.1929 83.7422 47.0535 80.5995C43.9105 77.4532 43.9105 72.3611 47.0535 69.2193C47.8067 68.4658 48.7019 67.869 49.6871 67.4635V38.6352C48.7004 38.2324 47.8048 37.6353 47.0535 36.8793C44.6722 34.5013 44.0996 31.0071 45.3198 28.0831L33.4154 16.1775L1.98105 47.6099C-0.660352 50.2525 -0.660352 54.5349 1.98105 57.1755L47.8259 103.018C50.4652 105.658 54.7464 105.658 57.3891 103.018L103.019 57.3884C105.66 54.747 105.66 50.4621 103.019 47.8219" fill="#DE4C36"/>
        </g>
        <defs>
            <clipPath id="clip0_2_5868">
                <rect width="105" height="105" fill="white"/>
            </clipPath>
        </defs>
    </g>

    <g id="tsSvg">
        <path d="M0 60V120H60H120V60V0H60H0V60Z" fill="#007ACC"/>
        <path d="M26.5373 60.3979L26.4992 65.3122H34.3087H42.1182L42.1182 87.5026V109.693H47.6421H53.1659V87.5026L53.1659 65.3122H60.9754H68.7849V60.4931C68.7849 57.8264 68.7278 55.5979 68.6516 55.5407C68.5944 55.4645 59.0897 55.4264 47.5659 55.4455L26.5944 55.5026L26.5373 60.3979Z" fill="white"/>
        <path d="M96.8265 55.3636C99.8741 56.1255 102.198 57.4779 104.331 59.6874C105.436 60.8684 107.074 63.0208 107.207 63.535C107.246 63.6874 102.026 67.1922 98.8646 69.1541C98.7503 69.2303 98.2931 68.7351 97.7789 67.9731C96.236 65.7255 94.6169 64.7541 92.1408 64.5827C88.5027 64.335 86.1598 66.2398 86.1789 69.4208C86.1789 70.3541 86.3122 70.9065 86.6931 71.6684C87.4931 73.3255 88.9789 74.316 93.6455 76.3351C102.236 80.0303 105.912 82.4684 108.198 85.935C110.75 89.8017 111.322 95.9731 109.588 100.564C107.684 105.554 102.96 108.945 96.3122 110.068C94.255 110.43 89.3789 110.373 87.1693 109.973C82.3503 109.116 77.7789 106.735 74.9598 103.611C73.855 102.392 71.7027 99.2112 71.836 98.9827C71.8931 98.9065 72.3884 98.6017 72.9408 98.2779C73.4741 97.9731 75.4931 96.8112 77.3979 95.7065L80.8455 93.7065L81.5693 94.7731C82.5789 96.316 84.7884 98.4303 86.1217 99.135C89.9503 101.154 95.2074 100.868 97.7979 98.5446C98.9027 97.535 99.3598 96.4874 99.3598 94.9446C99.3598 93.5541 99.1884 92.9446 98.4646 91.897C97.5312 90.5636 95.6265 89.4398 90.2169 87.097C84.0265 84.4303 81.3598 82.7731 78.9217 80.1446C77.5122 78.6208 76.1789 76.1827 75.6265 74.1446C75.1693 72.4493 75.055 68.2017 75.4169 66.4874C76.6931 60.5065 81.2074 56.335 87.7217 55.097C89.836 54.697 94.7503 54.8493 96.8265 55.3636Z" fill="white"/>
        <path d="M5.28391 147.824H1.34791V146.8H10.4039V147.824H6.46791V158H5.28391V147.824ZM18.2234 154.128V158H17.0554V154.128L12.5754 146.8H13.8394L17.6794 153.088L21.5194 146.8H22.7034L18.2234 154.128ZM30.6633 146.8C32.0926 146.8 33.2126 147.141 34.0233 147.824C34.834 148.507 35.2393 149.445 35.2393 150.64C35.2393 151.835 34.834 152.773 34.0233 153.456C33.2126 154.128 32.0926 154.464 30.6633 154.464H27.6553V158H26.4713V146.8H30.6633ZM30.6313 153.424C31.7406 153.424 32.5886 153.184 33.1753 152.704C33.762 152.213 34.0553 151.525 34.0553 150.64C34.0553 149.733 33.762 149.04 33.1753 148.56C32.5886 148.069 31.7406 147.824 30.6313 147.824H27.6553V153.424H30.6313ZM47.8855 156.976V158H39.9655V146.8H47.6455V147.824H41.1495V151.808H46.9415V152.816H41.1495V156.976H47.8855ZM55.9227 158.096C55.0907 158.096 54.2907 157.963 53.5227 157.696C52.7654 157.429 52.1787 157.077 51.7627 156.64L52.2267 155.728C52.632 156.133 53.1707 156.464 53.8427 156.72C54.5147 156.965 55.208 157.088 55.9227 157.088C56.9254 157.088 57.6774 156.907 58.1787 156.544C58.68 156.171 58.9307 155.691 58.9307 155.104C58.9307 154.656 58.792 154.299 58.5147 154.032C58.248 153.765 57.9174 153.563 57.5227 153.424C57.128 153.275 56.5787 153.115 55.8747 152.944C55.032 152.731 54.36 152.528 53.8587 152.336C53.3574 152.133 52.9254 151.829 52.5627 151.424C52.2107 151.019 52.0347 150.469 52.0347 149.776C52.0347 149.211 52.184 148.699 52.4827 148.24C52.7814 147.771 53.24 147.397 53.8587 147.12C54.4774 146.843 55.2454 146.704 56.1627 146.704C56.8027 146.704 57.4267 146.795 58.0347 146.976C58.6534 147.147 59.1867 147.387 59.6347 147.696L59.2347 148.64C58.7654 148.331 58.264 148.101 57.7307 147.952C57.1974 147.792 56.6747 147.712 56.1627 147.712C55.1814 147.712 54.44 147.904 53.9387 148.288C53.448 148.661 53.2027 149.147 53.2027 149.744C53.2027 150.192 53.336 150.555 53.6027 150.832C53.88 151.099 54.2214 151.307 54.6267 151.456C55.0427 151.595 55.5974 151.749 56.2907 151.92C57.112 152.123 57.7734 152.325 58.2747 152.528C58.7867 152.72 59.2187 153.019 59.5707 153.424C59.9227 153.819 60.0987 154.357 60.0987 155.04C60.0987 155.605 59.944 156.123 59.6347 156.592C59.336 157.051 58.872 157.419 58.2427 157.696C57.6134 157.963 56.84 158.096 55.9227 158.096ZM69.7085 158.096C68.5992 158.096 67.5965 157.851 66.7005 157.36C65.8152 156.869 65.1165 156.192 64.6045 155.328C64.1032 154.453 63.8525 153.477 63.8525 152.4C63.8525 151.323 64.1032 150.352 64.6045 149.488C65.1165 148.613 65.8205 147.931 66.7165 147.44C67.6125 146.949 68.6152 146.704 69.7245 146.704C70.5565 146.704 71.3245 146.843 72.0285 147.12C72.7325 147.397 73.3299 147.803 73.8205 148.336L73.0685 149.088C72.1939 148.203 71.0899 147.76 69.7565 147.76C68.8712 147.76 68.0659 147.963 67.3405 148.368C66.6152 148.773 66.0445 149.328 65.6285 150.032C65.2232 150.736 65.0205 151.525 65.0205 152.4C65.0205 153.275 65.2232 154.064 65.6285 154.768C66.0445 155.472 66.6152 156.027 67.3405 156.432C68.0659 156.837 68.8712 157.04 69.7565 157.04C71.1005 157.04 72.2045 156.592 73.0685 155.696L73.8205 156.448C73.3299 156.981 72.7272 157.392 72.0125 157.68C71.3085 157.957 70.5405 158.096 69.7085 158.096ZM86.1586 158L83.5986 154.4C83.3106 154.432 83.0119 154.448 82.7026 154.448H79.6946V158H78.5106V146.8H82.7026C84.1319 146.8 85.2519 147.141 86.0626 147.824C86.8733 148.507 87.2786 149.445 87.2786 150.64C87.2786 151.515 87.0546 152.256 86.6066 152.864C86.1693 153.461 85.5399 153.893 84.7186 154.16L87.4546 158H86.1586ZM82.6706 153.44C83.7799 153.44 84.6279 153.195 85.2146 152.704C85.8013 152.213 86.0946 151.525 86.0946 150.64C86.0946 149.733 85.8013 149.04 85.2146 148.56C84.6279 148.069 83.7799 147.824 82.6706 147.824H79.6946V153.44H82.6706ZM92.2392 146.8H93.4232V158H92.2392V146.8ZM103.425 146.8C104.855 146.8 105.975 147.141 106.785 147.824C107.596 148.507 108.001 149.445 108.001 150.64C108.001 151.835 107.596 152.773 106.785 153.456C105.975 154.128 104.855 154.464 103.425 154.464H100.417V158H99.2334V146.8H103.425ZM103.393 153.424C104.503 153.424 105.351 153.184 105.937 152.704C106.524 152.213 106.817 151.525 106.817 150.64C106.817 149.733 106.524 149.04 105.937 148.56C105.351 148.069 104.503 147.824 103.393 147.824H100.417V153.424H103.393ZM114.529 147.824H110.593V146.8H119.649V147.824H115.713V158H114.529V147.824Z" fill="#BDEBEA"/>
    </g>

    <!-- width="113" height="101" viewBox="0 0 113 101" -->
    <g id="reactSvg">
        <g clip-path="url(#clip0_2_5870)">
            <path d="M92.9056 32.7028C91.7031 32.2887 90.4904 31.9051 89.2687 31.5524C89.4739 30.7107 89.6628 29.8792 89.8306 29.0624C92.5838 15.6484 90.7839 4.84184 84.6361 1.28381C78.7416 -2.12716 69.1016 1.42955 59.3659 9.93348C58.4064 10.7731 57.4682 11.6369 56.5522 12.524C55.9389 11.9341 55.3149 11.3556 54.6803 10.7889C44.4767 1.69623 34.2493 -2.13602 28.1081 1.43221C22.2189 4.8538 20.475 15.0127 22.9538 27.7254C23.2004 28.9845 23.4788 30.2371 23.7888 31.4819C22.3412 31.8948 20.9442 32.3342 19.6073 32.802C7.64443 36.9882 0.00476074 43.5483 0.00476074 50.353C0.00476074 57.3809 8.20629 64.4301 20.6662 68.7044C21.6763 69.0495 22.6949 69.3693 23.7209 69.6635C23.3877 71.0042 23.0918 72.3541 22.8337 73.7114C20.4706 86.2035 22.316 96.1224 28.1893 99.5223C34.2555 103.033 44.437 99.4248 54.3506 90.7268C55.1545 90.0197 55.9407 89.2925 56.7084 88.546C57.7004 89.5067 58.7189 90.4394 59.7627 91.343C69.366 99.6365 78.8502 102.985 84.7177 99.5763C90.7782 96.055 92.748 85.3995 90.1907 72.4357C89.9893 71.42 89.7634 70.4094 89.5132 69.4048C90.2282 69.1921 90.93 68.9733 91.6141 68.7456C104.567 64.4385 112.995 57.4748 112.995 50.353C112.995 43.5235 105.109 36.9191 92.9056 32.7028ZM90.0963 64.1474C89.4783 64.3525 88.8445 64.5506 88.1984 64.7433C86.7683 60.1996 84.8387 55.3684 82.4769 50.3764C84.7305 45.5036 86.586 40.7341 87.9759 36.2201C89.1319 36.5558 90.2534 36.9098 91.3347 37.2832C101.791 40.8962 108.169 46.2372 108.169 50.353C108.169 54.7367 101.281 60.4277 90.0963 64.1474ZM85.4557 73.3765C86.5865 79.1087 86.7476 84.2916 85.9986 88.3436C85.3259 91.9845 83.9727 94.4116 82.299 95.3839C78.7385 97.4526 71.1235 94.7637 62.911 87.6707C61.9401 86.8305 60.9927 85.9634 60.0699 85.0704C63.2539 81.5757 66.4358 77.5131 69.5412 73.0009C75.0036 72.5145 80.1641 71.7189 84.844 70.6332C85.0694 71.5426 85.2734 72.4574 85.4557 73.3765ZM38.5257 95.0264C35.0469 96.2592 32.2759 96.2947 30.6009 95.3254C27.0369 93.2625 25.5552 85.2981 27.5762 74.6151C27.8165 73.3527 28.0916 72.0973 28.4012 70.8502C33.0294 71.8779 38.1523 72.6168 43.6275 73.0625C46.7542 77.4777 50.0278 81.5358 53.3271 85.0894C52.6259 85.7704 51.9082 86.4339 51.1745 87.0793C46.7904 90.9253 42.3974 93.6541 38.5257 95.0264ZM22.2277 64.1204C16.7181 62.2302 12.168 59.7739 9.04931 57.0934C6.24661 54.6849 4.83202 52.2932 4.83202 50.353C4.83202 46.2235 10.9657 40.9564 21.1962 37.3767C22.4378 36.9426 23.7372 36.5328 25.0856 36.1483C26.4997 40.7642 28.3544 45.5905 30.5926 50.4708C28.3252 55.4233 26.4441 60.3267 25.0163 64.9971C24.0798 64.7278 23.15 64.4355 22.2277 64.1204ZM27.691 26.7947C25.5676 15.9031 26.9777 7.68712 30.5268 5.62504C34.3067 3.42873 42.6653 6.56017 51.4755 14.4116C52.05 14.9247 52.6152 15.4483 53.1708 15.982C49.8879 19.5201 46.6443 23.5481 43.5454 27.9372C38.2313 28.4315 33.1446 29.2254 28.4678 30.289C28.1797 29.1311 27.9206 27.9661 27.691 26.7952V26.7947ZM76.4301 38.874C75.3255 36.9589 74.1799 35.068 72.9941 33.2025C76.5992 33.6601 80.0533 34.2674 83.297 35.0098C82.3233 38.1426 81.1095 41.4176 79.6808 44.7754C78.6365 42.7867 77.5527 40.8192 76.4301 38.874ZM56.5544 19.4443C58.7806 21.8652 61.0104 24.5679 63.2036 27.5004C58.7546 27.2895 54.2982 27.2886 49.8491 27.4977C52.0445 24.5922 54.2932 21.8931 56.5544 19.4443ZM36.5511 38.9072C35.4425 40.8368 34.3789 42.792 33.3613 44.7714C31.956 41.4255 30.7532 38.1355 29.7712 34.9584C32.9949 34.2346 36.4328 33.6428 40.0149 33.1936C38.8159 35.0705 37.661 36.9754 36.5511 38.9067V38.9072ZM40.1178 67.857C36.4169 67.4424 32.9274 66.8811 29.7045 66.1768C30.702 62.943 31.9312 59.583 33.367 56.1653C34.3887 58.1462 35.4567 60.1026 36.57 62.0331C37.7149 64.0177 38.9005 65.9615 40.1178 67.857ZM56.6877 81.6027C54.3996 79.1256 52.1177 76.3848 49.8892 73.4372C52.0528 73.5223 54.2584 73.5657 56.5001 73.5657C58.8031 73.5657 61.0797 73.5139 63.3206 73.4138C61.1203 76.4145 58.8989 79.1592 56.6877 81.6027ZM79.7263 55.9908C81.2366 59.4461 82.5096 62.7884 83.5203 65.9668C80.2444 66.7172 76.7073 67.3214 72.9804 67.7702C74.1746 65.87 75.3311 63.9462 76.4491 61.9999C77.5858 60.0215 78.6784 58.018 79.7263 55.9908ZM72.268 59.5794C70.5565 62.5635 68.7487 65.491 66.8475 68.3571C63.4038 68.6019 59.9525 68.7235 56.5001 68.7217C52.9837 68.7217 49.5635 68.6118 46.27 68.3974C44.3193 65.5379 42.477 62.6053 40.7472 59.606H40.7476C39.0259 56.6225 37.4177 53.5745 35.9265 50.4686C37.4139 47.3619 39.0172 44.3125 40.733 41.3268L40.7326 41.3272C42.4478 38.3407 44.2753 35.4207 46.2113 32.5734C49.5715 32.3183 53.0172 32.1854 56.4996 32.1854H56.5001C59.9984 32.1854 63.4486 32.3196 66.8078 32.5765C68.7243 35.4195 70.5402 38.3295 72.2521 41.3011C73.9736 44.2802 75.5982 47.3148 77.1231 50.3999C75.6138 53.5166 73.9944 56.5784 72.268 59.5794ZM82.2253 5.48062C86.0087 7.67073 87.4803 16.5025 85.103 28.0842C84.9512 28.8231 84.7808 29.5758 84.5955 30.339C79.9072 29.2528 74.8169 28.4453 69.4874 27.9434C66.3828 23.506 63.1656 19.4718 59.9361 15.9793C60.7825 15.1605 61.6491 14.3628 62.5349 13.5872C70.8768 6.30147 78.6732 3.42474 82.2253 5.48062ZM56.5001 40.2264C62.0724 40.2264 66.5898 44.7603 66.5898 50.353C66.5898 55.9456 62.0724 60.4796 56.5001 60.4796C50.9278 60.4796 46.4104 55.9456 46.4104 50.353C46.4104 44.7603 50.9278 40.2264 56.5001 40.2264Z" fill="#00D8FF"/>
        </g>
        <defs>
            <clipPath id="clip0_2_5870">
                <rect width="113" height="101" fill="white"/>
            </clipPath>
        </defs>
    </g>

<!-- width="117" height="87" viewBox="0 0 117 87" -->
    <g id="sassSvg">
        <g clip-path="url(#clip0_2_5872)">
            <path d="M100.673 50.0767C96.603 50.0975 93.0653 51.0695 90.1035 52.5064C89.0162 50.3721 87.9295 48.4708 87.738 47.0761C87.5246 45.4494 87.2691 44.4561 87.5246 42.5122C87.7805 40.5683 88.9312 37.8002 88.9098 37.589C88.8887 37.3779 88.6538 36.3846 86.3098 36.3638C83.9658 36.3425 81.9413 36.8074 81.7068 37.42C81.4724 38.0326 81.025 39.4274 80.7266 40.8638C80.3216 42.9771 76.0386 50.5199 73.5881 54.4711C72.7993 52.9291 72.1174 51.5765 71.968 50.499C71.755 48.8723 71.4991 47.879 71.755 45.9351C72.0109 43.9912 73.1617 41.2235 73.1402 41.0119C73.1187 40.8008 72.8843 39.8075 70.5403 39.7867C68.1958 39.7654 66.1713 40.2303 65.9373 40.8429C65.7029 41.456 65.4469 42.8924 64.957 44.2871C64.4667 45.6818 58.7769 58.2751 57.2852 61.5285C56.6824 62.8454 56.0501 64.1487 55.3886 65.4376C55.3886 65.4376 55.3672 65.5011 55.3032 65.6067C55.0954 66.0108 54.8824 66.4123 54.6643 66.8111V66.8319C54.3444 67.4028 54.0035 67.9307 53.833 67.9307C53.705 67.9307 53.4706 66.4096 53.8755 64.3388C54.7278 59.9652 56.7524 53.1616 56.7313 52.9291C56.7313 52.8022 57.1148 51.6191 55.4101 51.0061C53.7475 50.3934 53.1511 51.4075 53.0017 51.4075C52.8527 51.4075 52.7458 51.7669 52.7458 51.7669C52.7458 51.7669 54.6003 44.1181 49.2085 44.1181C45.8417 44.1181 41.1958 47.7735 38.8943 51.0695C36.278 52.4812 33.6639 53.8969 31.052 55.3166C29.7953 56.014 28.4951 56.7114 27.2803 57.3661C27.1949 57.2818 27.1099 57.1758 27.0244 57.0915C20.5034 50.1823 8.442 45.3012 8.95339 36.0257C9.14534 32.645 10.3171 23.7705 32.1178 12.9948C50.0608 4.22589 64.3392 6.65555 66.8111 12.0437C70.3484 19.735 59.1608 34.0184 40.6204 36.0887C33.5455 36.8708 29.8373 34.1661 28.9 33.152C27.9197 32.0953 27.7703 32.0319 27.4079 32.2435C26.8115 32.5607 27.1949 33.5114 27.4079 34.0605C27.9622 35.497 30.2422 38.0326 34.0994 39.2796C37.5091 40.378 45.7988 40.9911 55.8361 37.1454C67.0666 32.8348 75.8466 20.8547 73.2682 10.8184C70.6893 0.633969 53.641 -2.7255 37.5091 2.95805C27.9197 6.33927 17.52 11.6635 10.0402 18.594C1.15363 26.8341 -0.253039 33.9971 0.322334 36.9977C2.38984 47.6466 17.2006 54.5771 23.1248 59.7115C22.8263 59.8805 22.5489 60.0287 22.3149 60.1556C19.3526 61.6133 8.05811 67.4658 5.24523 73.6569C2.04891 80.6717 5.75708 85.7009 8.20756 86.3765C15.8154 88.4686 23.6362 84.7077 27.8342 78.4953C32.0323 72.2834 31.5209 64.2119 29.5818 60.5144C29.5604 60.4723 29.5393 60.4297 29.4964 60.3876C30.2637 59.9439 31.052 59.479 31.8194 59.0354C33.2296 58.2088 34.6578 57.4127 36.1029 56.6475C35.3781 58.6127 34.8452 60.958 34.5897 64.3388C34.2698 68.3114 35.9105 73.4666 38.063 75.4947C39.0223 76.3829 40.1515 76.4037 40.8763 76.4037C43.3908 76.4037 44.5205 74.3329 45.7778 71.882C47.3119 68.8818 48.6971 65.3955 48.6971 65.3955C48.6971 65.3955 46.971 74.8191 51.6595 74.8191C53.3641 74.8191 55.0902 72.6215 55.8575 71.5018V71.5227C55.8575 71.5227 55.9 71.4592 55.9855 71.3115C56.156 71.0369 56.2624 70.8674 56.2624 70.8674V70.8257C56.9443 69.6422 58.4789 66.9588 60.7589 62.5005C63.6998 56.7535 66.5342 49.5697 66.5342 49.5697C66.5342 49.5697 66.7901 51.3232 67.6634 54.2391C68.1753 55.9506 69.2401 57.831 70.0929 59.6481C69.411 60.5992 68.9846 61.1271 68.9846 61.1271L69.0061 61.1484C68.4518 61.8666 67.8554 62.6482 67.1945 63.4095C64.8716 66.1558 62.1016 69.3046 61.7178 70.2127C61.2699 71.2902 61.3768 72.0723 62.2296 72.7062C62.8475 73.1711 63.9553 73.2341 65.085 73.1711C67.1735 73.0229 68.6437 72.5159 69.3681 72.1992C70.4978 71.7977 71.819 71.1846 73.0548 70.2761C75.3352 68.6068 76.72 66.2193 76.5925 63.0714C76.5285 61.3387 75.9531 59.6059 75.2498 57.9787C75.4632 57.6833 75.6547 57.3874 75.8681 57.0915C79.4693 51.8724 82.2612 46.1463 82.2612 46.1463C82.2612 46.1463 82.5171 47.8999 83.3905 50.8162C83.8168 52.2952 84.6907 53.9011 85.4575 55.4644C82.0693 58.1904 79.9807 61.3595 79.2349 63.4303C77.8926 67.276 78.9365 69.0083 80.9185 69.4097C81.8133 69.6 83.092 69.1773 84.0298 68.7758C85.2231 68.3956 86.6297 67.7409 87.9724 66.7685C90.2529 65.0996 92.4474 62.7751 92.3195 59.6272C92.2555 58.1904 91.8721 56.7743 91.3392 55.4009C94.2161 54.2183 97.9242 53.563 102.655 54.1122C112.799 55.2953 114.802 61.5707 114.418 64.2124C114.035 66.8532 111.904 68.2901 111.201 68.7337C110.497 69.1777 110.263 69.3254 110.327 69.6422C110.412 70.1071 110.753 70.0862 111.35 70.0015C112.181 69.8538 116.678 67.8673 116.869 63.0075C117.189 56.7956 111.222 50.0133 100.673 50.0767ZM22.4214 76.2347C19.0542 79.8688 14.3662 81.2422 12.3417 80.0804C10.1681 78.8334 11.0204 73.4666 15.1545 69.6213C17.669 67.276 20.9083 65.0992 23.0608 63.7683C23.5507 63.4724 24.2755 63.0501 25.1493 62.5218C25.2983 62.437 25.3838 62.3949 25.3838 62.3949L25.8952 62.0777C27.4078 67.5714 25.9591 72.4103 22.4214 76.2347ZM46.9285 59.7115C45.7563 62.5431 43.3058 69.7904 41.8141 69.3889C40.5354 69.0509 39.7466 63.5572 41.5582 58.1269C42.4745 55.4009 44.4136 52.147 45.5433 50.8796C47.3759 48.851 49.4005 48.1745 49.8904 48.9992C50.5087 50.0767 47.6529 57.9366 46.9285 59.7115ZM67.152 69.3042C66.6617 69.5579 66.1932 69.7269 65.9798 69.6C65.8308 69.5153 66.1932 69.1773 66.1932 69.1773C66.1932 69.1773 68.7292 66.473 69.7305 65.2473C70.3063 64.5291 70.9877 63.684 71.7125 62.7329V63.0075C71.7125 66.2406 68.5583 68.4169 67.1516 69.3042H67.152ZM82.7511 65.7757C82.3887 65.5219 82.4527 64.6768 83.6674 62.0356C84.1363 61.0002 85.2441 59.2679 87.1411 57.5986C87.3541 58.2746 87.5035 58.9299 87.4821 59.5425C87.4606 63.6206 84.5202 65.1417 82.7511 65.7757Z" fill="#CD6799"/>
        </g>
        <defs>
            <clipPath id="clip0_2_5872">
                <rect width="117" height="87" fill="white"/>
            </clipPath>
        </defs>
    </g>
<!-- width="220" height="164" viewBox="0 0 220 164" -->
    <g id="cssSvg">
        <path d="M4.22402 158.096C3.39202 158.096 2.59202 157.963 1.82402 157.696C1.06669 157.429 0.480019 157.077 0.0640194 156.64L0.528019 155.728C0.933353 156.133 1.47202 156.464 2.14402 156.72C2.81602 156.965 3.50935 157.088 4.22402 157.088C5.22669 157.088 5.97869 156.907 6.48002 156.544C6.98135 156.171 7.23202 155.691 7.23202 155.104C7.23202 154.656 7.09335 154.299 6.81602 154.032C6.54935 153.765 6.21869 153.563 5.82402 153.424C5.42935 153.275 4.88002 153.115 4.17602 152.944C3.33335 152.731 2.66135 152.528 2.16002 152.336C1.65869 152.133 1.22669 151.829 0.864019 151.424C0.512019 151.019 0.336019 150.469 0.336019 149.776C0.336019 149.211 0.485353 148.699 0.784019 148.24C1.08269 147.771 1.54135 147.397 2.16002 147.12C2.77869 146.843 3.54669 146.704 4.46402 146.704C5.10402 146.704 5.72802 146.795 6.33602 146.976C6.95469 147.147 7.48802 147.387 7.93602 147.696L7.53602 148.64C7.06669 148.331 6.56535 148.101 6.03202 147.952C5.49869 147.792 4.97602 147.712 4.46402 147.712C3.48269 147.712 2.74135 147.904 2.24002 148.288C1.74935 148.661 1.50402 149.147 1.50402 149.744C1.50402 150.192 1.63735 150.555 1.90402 150.832C2.18135 151.099 2.52269 151.307 2.92802 151.456C3.34402 151.595 3.89869 151.749 4.59202 151.92C5.41335 152.123 6.07469 152.325 6.57602 152.528C7.08802 152.72 7.52002 153.019 7.87202 153.424C8.22402 153.819 8.40002 154.357 8.40002 155.04C8.40002 155.605 8.24535 156.123 7.93602 156.592C7.63735 157.051 7.17335 157.419 6.54402 157.696C5.91469 157.963 5.14135 158.096 4.22402 158.096ZM15.1656 147.824H11.2296V146.8H20.2856V147.824H16.3496V158H15.1656V147.824ZM28.105 154.128V158H26.937V154.128L22.457 146.8H23.721L27.561 153.088L31.401 146.8H32.585L28.105 154.128ZM36.353 146.8H37.537V156.976H43.809V158H36.353V146.8ZM55.8609 156.976V158H47.9409V146.8H55.6209V147.824H49.1249V151.808H54.9169V152.816H49.1249V156.976H55.8609ZM60.8101 146.8H65.3701C66.5541 146.8 67.5995 147.04 68.5061 147.52C69.4128 147.989 70.1168 148.651 70.6181 149.504C71.1195 150.347 71.3701 151.312 71.3701 152.4C71.3701 153.488 71.1195 154.459 70.6181 155.312C70.1168 156.155 69.4128 156.816 68.5061 157.296C67.5995 157.765 66.5541 158 65.3701 158H60.8101V146.8ZM65.3061 156.976C66.2875 156.976 67.1461 156.784 67.8821 156.4C68.6181 156.005 69.1888 155.467 69.5941 154.784C69.9995 154.091 70.2021 153.296 70.2021 152.4C70.2021 151.504 69.9995 150.715 69.5941 150.032C69.1888 149.339 68.6181 148.8 67.8821 148.416C67.1461 148.021 66.2875 147.824 65.3061 147.824H61.9941V156.976H65.3061ZM87.4125 158.096C86.3032 158.096 85.3005 157.851 84.4045 157.36C83.5192 156.869 82.8205 156.192 82.3085 155.328C81.8072 154.453 81.5565 153.477 81.5565 152.4C81.5565 151.323 81.8072 150.352 82.3085 149.488C82.8205 148.613 83.5245 147.931 84.4205 147.44C85.3165 146.949 86.3192 146.704 87.4285 146.704C88.2605 146.704 89.0285 146.843 89.7325 147.12C90.4365 147.397 91.0339 147.803 91.5245 148.336L90.7725 149.088C89.8979 148.203 88.7939 147.76 87.4605 147.76C86.5752 147.76 85.7699 147.963 85.0445 148.368C84.3192 148.773 83.7485 149.328 83.3325 150.032C82.9272 150.736 82.7245 151.525 82.7245 152.4C82.7245 153.275 82.9272 154.064 83.3325 154.768C83.7485 155.472 84.3192 156.027 85.0445 156.432C85.7699 156.837 86.5752 157.04 87.4605 157.04C88.8045 157.04 89.9085 156.592 90.7725 155.696L91.5245 156.448C91.0339 156.981 90.4312 157.392 89.7165 157.68C89.0125 157.957 88.2445 158.096 87.4125 158.096ZM100.876 158.096C99.7669 158.096 98.7589 157.851 97.8523 157.36C96.9563 156.859 96.2523 156.176 95.7403 155.312C95.2389 154.448 94.9883 153.477 94.9883 152.4C94.9883 151.323 95.2389 150.352 95.7403 149.488C96.2523 148.624 96.9563 147.947 97.8523 147.456C98.7589 146.955 99.7669 146.704 100.876 146.704C101.986 146.704 102.983 146.949 103.868 147.44C104.764 147.931 105.468 148.613 105.98 149.488C106.492 150.352 106.748 151.323 106.748 152.4C106.748 153.477 106.492 154.453 105.98 155.328C105.468 156.192 104.764 156.869 103.868 157.36C102.983 157.851 101.986 158.096 100.876 158.096ZM100.876 157.04C101.762 157.04 102.562 156.843 103.276 156.448C103.991 156.043 104.551 155.488 104.956 154.784C105.362 154.069 105.564 153.275 105.564 152.4C105.564 151.525 105.362 150.736 104.956 150.032C104.551 149.317 103.991 148.763 103.276 148.368C102.562 147.963 101.762 147.76 100.876 147.76C99.9909 147.76 99.1856 147.963 98.4603 148.368C97.7456 148.763 97.1803 149.317 96.7643 150.032C96.3589 150.736 96.1562 151.525 96.1562 152.4C96.1562 153.275 96.3589 154.069 96.7643 154.784C97.1803 155.488 97.7456 156.043 98.4603 156.448C99.1856 156.843 99.9909 157.04 100.876 157.04ZM123.2 146.8V158H122.064V149.04L117.664 156.576H117.104L112.704 149.088V158H111.568V146.8H112.544L117.408 155.104L122.224 146.8H123.2ZM133.208 146.8C134.637 146.8 135.757 147.141 136.568 147.824C137.378 148.507 137.784 149.445 137.784 150.64C137.784 151.835 137.378 152.773 136.568 153.456C135.757 154.128 134.637 154.464 133.208 154.464H130.2V158H129.016V146.8H133.208ZM133.176 153.424C134.285 153.424 135.133 153.184 135.72 152.704C136.306 152.213 136.6 151.525 136.6 150.64C136.6 149.733 136.306 149.04 135.72 148.56C135.133 148.069 134.285 147.824 133.176 147.824H130.2V153.424H133.176ZM147.562 158.096C146.453 158.096 145.445 157.851 144.538 157.36C143.642 156.859 142.938 156.176 142.426 155.312C141.925 154.448 141.674 153.477 141.674 152.4C141.674 151.323 141.925 150.352 142.426 149.488C142.938 148.624 143.642 147.947 144.538 147.456C145.445 146.955 146.453 146.704 147.562 146.704C148.671 146.704 149.669 146.949 150.554 147.44C151.45 147.931 152.154 148.613 152.666 149.488C153.178 150.352 153.434 151.323 153.434 152.4C153.434 153.477 153.178 154.453 152.666 155.328C152.154 156.192 151.45 156.869 150.554 157.36C149.669 157.851 148.671 158.096 147.562 158.096ZM147.562 157.04C148.447 157.04 149.247 156.843 149.962 156.448C150.677 156.043 151.237 155.488 151.642 154.784C152.047 154.069 152.25 153.275 152.25 152.4C152.25 151.525 152.047 150.736 151.642 150.032C151.237 149.317 150.677 148.763 149.962 148.368C149.247 147.963 148.447 147.76 147.562 147.76C146.677 147.76 145.871 147.963 145.146 148.368C144.431 148.763 143.866 149.317 143.45 150.032C143.045 150.736 142.842 151.525 142.842 152.4C142.842 153.275 143.045 154.069 143.45 154.784C143.866 155.488 144.431 156.043 145.146 156.448C145.871 156.843 146.677 157.04 147.562 157.04ZM167.614 146.8V158H166.638L159.438 148.912V158H158.254V146.8H159.23L166.446 155.888V146.8H167.614ZM181.356 156.976V158H173.436V146.8H181.116V147.824H174.62V151.808H180.412V152.816H174.62V156.976H181.356ZM195.665 146.8V158H194.689L187.489 148.912V158H186.305V146.8H187.281L194.497 155.888V146.8H195.665ZM203.663 147.824H199.727V146.8H208.783V147.824H204.847V158H203.663V147.824ZM215.756 158.096C214.924 158.096 214.124 157.963 213.356 157.696C212.599 157.429 212.012 157.077 211.596 156.64L212.06 155.728C212.466 156.133 213.004 156.464 213.676 156.72C214.348 156.965 215.042 157.088 215.756 157.088C216.759 157.088 217.511 156.907 218.012 156.544C218.514 156.171 218.764 155.691 218.764 155.104C218.764 154.656 218.626 154.299 218.348 154.032C218.082 153.765 217.751 153.563 217.356 153.424C216.962 153.275 216.412 153.115 215.708 152.944C214.866 152.731 214.194 152.528 213.692 152.336C213.191 152.133 212.759 151.829 212.396 151.424C212.044 151.019 211.868 150.469 211.868 149.776C211.868 149.211 212.018 148.699 212.316 148.24C212.615 147.771 213.074 147.397 213.692 147.12C214.311 146.843 215.079 146.704 215.996 146.704C216.636 146.704 217.26 146.795 217.868 146.976C218.487 147.147 219.02 147.387 219.468 147.696L219.068 148.64C218.599 148.331 218.098 148.101 217.564 147.952C217.031 147.792 216.508 147.712 215.996 147.712C215.015 147.712 214.274 147.904 213.772 148.288C213.282 148.661 213.036 149.147 213.036 149.744C213.036 150.192 213.17 150.555 213.436 150.832C213.714 151.099 214.055 151.307 214.46 151.456C214.876 151.595 215.431 151.749 216.124 151.92C216.946 152.123 217.607 152.325 218.108 152.528C218.62 152.72 219.052 153.019 219.404 153.424C219.756 153.819 219.932 154.357 219.932 155.04C219.932 155.605 219.778 156.123 219.468 156.592C219.17 157.051 218.706 157.419 218.076 157.696C217.447 157.963 216.674 158.096 215.756 158.096Z" fill="#BDEBEA"/>
        <g clip-path="url(#clip0_1_3057)">
            <path d="M119.767 118.279C119.947 117.872 120.402 117.589 120.731 117.246C125.767 111.967 130.845 106.735 135.811 101.391C137.365 99.9558 138.566 98.1804 139.32 96.2036C140.074 94.2269 140.36 92.1026 140.156 89.9968C140 89.0951 139.796 88.2025 139.544 87.3229C138.189 88.6084 136.93 89.7783 135.661 90.9567C133.69 92.7908 131.727 94.6334 129.739 96.4461C128.567 97.6415 127.059 98.4531 125.416 98.7737C123.772 99.0943 122.07 98.9087 120.534 98.2416C118.98 97.6705 117.627 96.6553 116.644 95.3221C115.662 93.9889 115.092 92.3965 115.006 90.7425C114.96 90.5297 114.899 90.3206 114.822 90.1168C113.309 91.4024 111.861 92.5851 110.426 93.8021L80.5877 119.085C80.382 119.261 80.1591 119.479 79.9663 119.65H119.746L119.686 119.612C119.472 119.462 119.583 118.673 119.767 118.279Z" fill="#FFCEBF"/>
            <path d="M78.1436 118.279C78.4974 117.818 78.9245 117.418 79.4077 117.096L120.7 82.0642C123.517 79.6731 126.321 77.2691 129.112 74.8522C129.457 74.6118 129.727 74.2791 129.892 73.8924C130.559 70.9831 130.654 67.9717 130.17 65.0263C129.742 65.3262 129.51 65.4548 129.313 65.6648C125.932 68.6901 122.568 71.7412 119.17 74.7494C118.044 75.8824 116.588 76.6292 115.012 76.8825C113.435 77.1359 111.818 76.8826 110.394 76.1592C108.941 75.4734 107.726 74.3709 106.901 72.992C106.077 71.6131 105.682 70.0201 105.766 68.4159V67.0275C105.145 67.4817 104.69 67.7859 104.266 68.1287C87.7396 81.3615 71.2159 94.5842 54.695 107.797C53.9493 108.393 53.058 109.721 52.081 108.431C51.104 107.141 52.5909 106.61 53.3408 106.01C70.953 91.8774 88.5738 77.7576 106.203 63.6507C109.074 61.3496 109.263 60.3854 107.394 56.7301L106.28 57.7757C103.225 60.6168 100.135 63.4193 97.1271 66.3075C95.8931 67.4978 94.3476 68.3148 92.6691 68.6641C90.9906 69.0135 89.2476 68.8809 87.6412 68.2818C86.0348 67.6827 84.6306 66.6415 83.5908 65.2784C82.5509 63.9153 81.9178 62.2858 81.7646 60.5782C81.1947 61.0067 80.7019 61.3196 80.2348 61.6838L54.095 81.9443C53.6442 82.3864 53.13 82.7591 52.5695 83.0498C52.1464 83.1777 51.6921 83.155 51.2839 82.9856V119.671H78.0922C77.9925 119.451 77.9453 119.21 77.9542 118.969C77.9631 118.727 78.028 118.491 78.1436 118.279Z" fill="#FFCEBF"/>
            <path d="M150.565 1.82096C149.837 4.20782 149.13 6.59897 148.491 9.01154C147.901 10.7164 147.97 12.5802 148.684 14.2371C149.397 15.8941 150.704 17.2246 152.348 17.9676C157.376 20.6107 163.042 21.798 168.709 21.3958V2.22806C168.646 1.80781 168.669 1.37914 168.777 0.968207C168.897 0.73576 169.049 0.520916 169.227 0.329712H150.548C150.835 0.663958 150.737 1.25103 150.565 1.82096Z" fill="#FF6196"/>
            <path d="M113.051 42.9976C112.962 45.137 112.214 47.1966 110.908 48.894C106.242 54.9179 100.883 60.3719 94.9417 65.1435C93.9836 66.0304 92.7693 66.591 91.4728 66.745C90.1764 66.8989 88.8646 66.6383 87.7254 66.0005C86.5916 65.5161 85.6356 64.6925 84.9887 63.6428C84.3419 62.5932 84.036 61.369 84.113 60.1384C84.2502 58.627 84.8777 57.202 85.8999 56.0803C92.5434 49.7455 99.7414 44.019 107.407 38.9695C107.909 38.5758 108.523 38.3499 109.16 38.3237C109.798 38.2976 110.427 38.4725 110.96 38.8238C111.66 39.2585 112.226 39.8786 112.595 40.6153C112.964 41.352 113.122 42.1766 113.051 42.9976Z" fill="#FF87AF"/>
            <path d="M107.913 68.97C107.813 68.0228 107.935 67.0654 108.268 66.1731C108.601 65.2809 109.136 64.478 109.832 63.8277C116.337 57.8281 123.316 52.3638 130.701 47.4883C130.924 47.3468 131.13 47.2054 131.374 47.0597C132.019 46.594 132.801 46.356 133.596 46.3832C134.391 46.4103 135.155 46.7011 135.766 47.2097C136.358 47.7112 136.777 48.3865 136.963 49.1396C137.15 49.8928 137.094 50.6854 136.803 51.4049C135.869 54.5168 134.145 57.3337 131.798 59.5811C127.033 64.2758 122.175 68.8762 117.229 73.3795C116.484 74.1456 115.505 74.6422 114.447 74.7911C113.389 74.9401 112.311 74.7329 111.384 74.2022C110.409 73.6958 109.579 72.9499 108.972 72.0347C108.365 71.1194 108 70.0648 107.913 68.97Z" fill="#FF87AF"/>
            <path d="M138.834 71.8015C137.635 73.0871 136.4 74.3126 135.248 75.6282C134.901 76.1367 134.614 76.683 134.391 77.2566C135.025 77.4451 135.766 77.9422 136.28 77.7665C138.899 76.888 141.453 75.8339 144.328 74.724C143.702 76.1638 143.231 77.4922 142.567 78.7092C139.831 83.3078 136.404 87.4587 132.407 91.0164C130.887 92.4819 129.308 93.8832 127.671 95.2201C126.805 95.9395 125.762 96.4157 124.651 96.6001C123.54 96.7844 122.399 96.6702 121.347 96.2692C120.294 95.8681 119.367 95.1947 118.66 94.3176C117.953 93.4406 117.491 92.3916 117.323 91.2778C117.254 90.6585 117.309 90.0317 117.484 89.4337C117.659 88.8357 117.951 88.2784 118.343 87.7939C124.174 81.4614 130.838 75.9503 138.153 71.4115C138.242 71.3771 138.336 71.3582 138.432 71.3558L138.834 71.8015Z" fill="#FF87AF"/>
            <path d="M148.672 54.7335L156.004 22.1659L161.147 23.37L158.494 31.4305C156.017 38.9296 153.51 46.4287 151.093 53.9364C150.622 55.3248 150.005 55.5819 148.672 54.7335Z" fill="#FF6196"/>
            <path d="M140.386 73.8885C141.161 70.9274 141.933 68.1892 142.584 65.421C143.219 62.7364 144.426 60.2207 146.124 58.0461C147.165 56.6791 148.335 57.2234 149.53 57.519C150.636 57.789 150.914 58.5989 150.962 59.6616C151.136 62.6005 150.241 65.5031 148.442 67.8335C146.3 70.4887 143.532 72.5695 140.386 73.8885Z" fill="#FF6196"/>
            <path d="M170.944 3.83936C171.008 2.88498 170.983 1.92674 170.871 0.976845C170.783 0.711516 170.607 0.483621 170.374 0.329779C170.184 0.175101 169.961 0.0652523 169.723 0.00838844C169.585 -0.0173228 169.393 0.124089 169.208 0.325493C169.03 0.516698 168.878 0.731542 168.758 0.96399C168.65 1.37492 168.627 1.80359 168.69 2.22384V21.3873C163.023 21.7895 157.357 20.6022 152.329 17.9591C150.685 17.2161 149.378 15.8856 148.665 14.2286C147.951 12.5717 147.882 10.7079 148.472 9.00304C149.111 6.59046 149.818 4.19932 150.546 1.81246C150.718 1.24253 150.816 0.655454 150.546 0.321208C150.396 0.158494 150.189 0.0602123 149.968 0.0469556C149.685 0.0500088 149.411 0.146413 149.188 0.321208C148.867 0.512888 148.612 0.796593 148.455 1.1354C147.598 3.70652 146.844 6.30336 146.188 8.9259C145.941 9.95936 145.874 11.0279 145.991 12.0841C146.157 13.9952 146.868 15.8186 148.039 17.3377C149.21 18.8569 150.793 20.0081 152.599 20.6545C153.409 20.993 153.884 21.3273 153.657 22.3943C153.344 23.7484 153.04 25.1026 152.732 26.461C150.632 35.6656 148.544 44.8745 146.467 54.0877C146.408 54.4985 146.228 54.8822 145.948 55.189C144.579 56.2771 143.429 57.6148 142.559 59.1314C141.449 61.1327 140.682 63.3052 140.287 65.5592C140.212 66.2782 139.952 66.9655 139.533 67.5548C139.114 68.144 138.55 68.6153 137.896 68.9231C136.109 69.8273 134.468 70.9971 132.484 72.2141C132.616 69.8282 132.591 67.4361 132.407 65.0535C132.256 64.3206 132.288 63.5618 132.5 62.8442C132.713 62.1267 133.099 61.4725 133.624 60.9397C136.238 58.3506 138.1 55.1015 139.015 51.538C139.288 50.712 139.363 49.8333 139.233 48.9729C139.104 48.1126 138.774 47.2948 138.27 46.5856C137.766 45.8764 137.102 45.2957 136.332 44.8905C135.563 44.4853 134.708 44.267 133.838 44.2531C132.43 44.2374 131.047 44.6304 129.857 45.3844C125.768 48.1767 121.75 51.0715 117.807 54.0663C115.463 55.8318 113.256 57.7858 110.985 59.637C110.887 59.5319 110.802 59.4154 110.732 59.2899C110.689 58.9744 110.604 58.6661 110.48 58.3729C108.581 55.4418 109.897 53.3121 111.958 51.1223C114.105 48.8714 115.292 45.8727 115.266 42.7619C115.333 41.1769 114.836 39.6194 113.865 38.3653C113.347 37.7286 112.71 37.2001 111.988 36.8097C110.963 36.2487 109.791 36.0145 108.629 36.1386C107.467 36.2627 106.371 36.7391 105.487 37.5039L104.292 38.361C101.562 40.315 98.7981 42.2177 96.1713 44.3089C92.3364 47.3705 88.5841 50.5341 84.9183 53.7963C83.2042 55.309 81.953 57.3744 80.1746 58.78C70.9014 66.1034 61.5297 73.294 52.1922 80.5317C51.8711 80.7232 51.5759 80.9551 51.3137 81.2216C51.2867 81.2606 51.2638 81.3023 51.2452 81.3459C51.0481 81.8044 50.8809 82.5629 51.1123 82.8414C51.1691 82.9019 51.2376 82.95 51.3137 82.9828C51.7219 83.1523 52.1762 83.175 52.5993 83.0471C53.1598 82.7563 53.674 82.3837 54.1248 81.9415L80.2646 61.6811C80.7317 61.3168 81.2245 60.9869 81.7944 60.5755C81.9476 62.2831 82.5807 63.9125 83.6206 65.2757C84.6604 66.6388 86.0646 67.68 87.671 68.2791C89.2774 68.8782 91.0204 69.0107 92.6989 68.6614C94.3774 68.312 95.9229 67.4951 97.1569 66.3048C100.157 63.4166 103.255 60.6141 106.31 57.773L107.424 56.7274C109.293 60.3827 109.104 61.3468 106.233 63.648C88.5893 77.7663 70.9585 91.8875 53.3406 106.012C52.5907 106.611 51.108 107.156 52.0808 108.433C53.0535 109.71 53.9491 108.394 54.6948 107.798C71.2242 94.5972 87.7423 81.3787 104.249 68.1432C104.677 67.8003 105.127 67.4961 105.749 67.0419V68.4303C105.665 70.0345 106.06 71.6275 106.884 73.0064C107.708 74.3853 108.924 75.4879 110.377 76.1736C111.801 76.897 113.417 77.1503 114.994 76.897C116.571 76.6436 118.027 75.8968 119.153 74.7638C122.551 71.7642 125.915 68.7045 129.296 65.6792C129.51 65.4863 129.759 65.3406 130.153 65.0407C130.637 67.9861 130.542 70.9975 129.874 73.9068C129.71 74.2936 129.439 74.6262 129.095 74.8667C126.301 77.2807 123.497 79.6847 120.683 82.0787L79.4075 117.115C78.9243 117.437 78.4972 117.836 78.1434 118.297C78.0305 118.507 77.9672 118.741 77.9582 118.979C77.9493 119.217 77.9951 119.455 78.092 119.673C78.2856 119.818 78.5094 119.917 78.7468 119.964C78.9842 120.011 79.2291 120.004 79.4633 119.943C79.648 119.889 79.8181 119.794 79.9603 119.664C80.1746 119.493 80.3889 119.274 80.5817 119.099L110.42 93.8158C111.855 92.5988 113.304 91.399 114.816 90.1306C114.893 90.3343 114.954 90.5434 115 90.7562C115.086 92.4102 115.656 94.0027 116.638 95.3358C117.621 96.669 118.974 97.6842 120.528 98.2553C122.064 98.9225 123.766 99.108 125.41 98.7874C127.053 98.4669 128.561 97.6552 129.733 96.4598C131.721 94.6472 133.684 92.8045 135.655 90.9705C136.941 89.792 138.183 88.6093 139.538 87.3366C139.79 88.2162 139.994 89.1089 140.15 90.0106C140.347 92.1094 140.058 94.2253 139.304 96.1941C138.551 98.1628 137.353 99.9313 135.805 101.362C130.839 106.71 125.761 111.942 120.726 117.217C120.396 117.56 119.941 117.843 119.761 118.25C119.581 118.657 119.466 119.454 119.68 119.626L119.74 119.664C120.189 119.883 120.695 119.959 121.188 119.883C121.327 119.854 121.45 119.777 121.535 119.664C121.655 119.54 121.771 119.386 121.887 119.27C125.966 115.053 130.067 110.858 134.117 106.611C135.751 104.955 137.288 103.205 138.719 101.371C140.585 99.3049 141.822 96.7492 142.285 94.0042C142.749 91.2591 142.418 88.439 141.333 85.8754C141.216 85.3037 141.33 84.7092 141.65 84.2213C141.929 83.7413 142.237 83.2742 142.554 82.8114C143.569 81.494 144.414 80.0544 145.07 78.5262C146.337 74.7758 148.282 71.2898 150.808 68.2417C151.969 66.7695 152.768 65.0448 153.14 63.207C153.512 61.3692 153.447 59.4696 152.95 57.6616C152.775 56.9741 152.775 56.2535 152.95 55.5661C155.119 48.8512 157.351 42.1577 159.562 35.4599L162.519 26.4867L163.432 23.7142C165.377 23.7142 167.211 23.6756 169.037 23.7142C170.554 23.757 171.017 23.0457 171 21.5715C170.91 15.658 170.944 9.74866 170.944 3.83936ZM94.9371 65.1435C93.9791 66.0304 92.7647 66.591 91.4683 66.745C90.1719 66.8989 88.86 66.6383 87.7208 66.0006C86.587 65.5162 85.631 64.6925 84.9842 63.6429C84.3373 62.5932 84.0314 61.369 84.1084 60.1384C84.2457 58.6271 84.8732 57.202 85.8953 56.0803C92.5388 49.7455 99.7368 44.019 107.403 38.9695C107.821 38.6737 108.297 38.4693 108.8 38.3696C109.137 38.3074 109.483 38.3074 109.82 38.3696C110.223 38.4482 110.609 38.6023 110.955 38.8238C111.656 39.2588 112.222 39.8796 112.592 40.6171C112.961 41.3547 113.118 42.1802 113.046 43.0019C112.958 45.1413 112.209 47.2009 110.904 48.8983C106.237 54.9207 100.878 60.3733 94.9371 65.1435ZM117.22 73.4097C116.475 74.1758 115.497 74.6724 114.438 74.8213C113.38 74.9703 112.303 74.7631 111.375 74.2324C110.399 73.7249 109.568 72.977 108.961 72.0593C108.353 71.1416 107.99 70.0844 107.904 68.9874C107.805 68.0401 107.926 67.0828 108.259 66.1905C108.593 65.2982 109.128 64.4954 109.824 63.8451C116.329 57.8454 123.308 52.3811 130.693 47.5056C130.916 47.3642 131.121 47.2228 131.366 47.0771C132.011 46.6114 132.792 46.3734 133.587 46.4005C134.383 46.4277 135.146 46.7185 135.758 47.2271C136.35 47.7285 136.769 48.4038 136.955 49.157C137.141 49.9101 137.085 50.7028 136.795 51.4223C135.861 54.5342 134.136 57.351 131.79 59.5985C127.063 64.3208 122.148 68.8674 117.229 73.3925L117.22 73.4097ZM142.55 78.7276C139.818 83.319 136.397 87.4638 132.407 91.0176C130.887 92.4831 129.309 93.8844 127.672 95.2214C126.805 95.9408 125.763 96.417 124.651 96.6013C123.54 96.7856 122.4 96.6714 121.347 96.2704C120.294 95.8694 119.367 95.1959 118.66 94.3189C117.953 93.4419 117.492 92.3928 117.323 91.279C117.254 90.6597 117.309 90.0329 117.484 89.435C117.659 88.837 117.951 88.2796 118.343 87.7951C124.174 81.4627 130.839 75.9515 138.153 71.4128C138.242 71.3783 138.337 71.3594 138.432 71.3571L138.86 71.7856C137.661 73.0712 136.426 74.2967 135.274 75.6123C134.927 76.1208 134.64 76.6671 134.417 77.2407C135.051 77.4292 135.792 77.9263 136.307 77.7506C138.376 77.0564 140.412 76.2508 142.593 75.3937L144.354 74.7081C143.694 76.1651 143.223 77.4935 142.559 78.7105L142.55 78.7276ZM148.434 67.8646C146.835 69.8996 144.832 71.5806 142.55 72.8012C141.844 73.1954 141.12 73.564 140.377 73.9068C141.14 70.9885 141.903 68.2846 142.55 65.5506L142.576 65.4392C143.211 62.7546 144.418 60.2389 146.115 58.0644C147.157 56.6974 148.327 57.2416 149.522 57.5373C150.628 57.8073 150.906 58.6172 150.953 59.6799C151.129 62.6162 150.237 65.5171 148.442 67.8475L148.434 67.8646ZM158.461 31.4404C155.984 38.9395 153.477 46.4386 151.06 53.9463C150.606 55.3561 149.989 55.6132 148.656 54.7648L155.011 26.5124L155.988 22.1758L161.131 23.3799L160.098 26.5124L158.461 31.4404Z" fill="black"/>
        </g>
        <defs>
            <clipPath id="clip0_1_3057">
                <rect width="120" height="120" fill="white" transform="translate(51)"/>
            </clipPath>
        </defs>

    </g>
    <!-- width="800px" height="800px" viewBox="0 0 1024 1024" -->
    <g id="logoSvg">
        <path d="M691.573 338.89c-1.282 109.275-89.055 197.047-198.33 198.331-109.292 1.282-197.065-90.984-198.325-198.331-0.809-68.918-107.758-68.998-106.948 0 1.968 167.591 137.681 303.31 305.272 305.278C660.85 646.136 796.587 503.52 798.521 338.89c0.811-68.998-106.136-68.918-106.948 0z" fill="#4A5699" /><path d="M294.918 325.158c1.283-109.272 89.051-197.047 198.325-198.33 109.292-1.283 197.068 90.983 198.33 198.33 0.812 68.919 107.759 68.998 106.948 0C796.555 157.567 660.839 21.842 493.243 19.88c-167.604-1.963-303.341 140.65-305.272 305.278-0.811 68.998 106.139 68.919 106.947 0z" fill="#C45FA0" /><path d="M222.324 959.994c0.65-74.688 29.145-144.534 80.868-197.979 53.219-54.995 126.117-84.134 201.904-84.794 74.199-0.646 145.202 29.791 197.979 80.867 54.995 53.219 84.13 126.119 84.79 201.905 0.603 68.932 107.549 68.99 106.947 0-1.857-213.527-176.184-387.865-389.716-389.721-213.551-1.854-387.885 178.986-389.721 389.721-0.601 68.991 106.349 68.933 106.949 0.001z" fill="#E5594F" />
    </g>

</svg>
