<svg width="120" height="120" viewBox="0 0 120 120" fill="none" xmlns="http://www.w3.org/2000/svg">

    <g id="htmlSvg">
        <path d="M22.1325 102.004L13.7063 7.5H106.294L97.8563 101.989L59.9438 112.5L22.1325 102.004Z" fill="#E44F26"/>
        <path d="M60 104.468L90.6375 95.9738L97.845 15.2288H60V104.468Z" fill="#F1662A"/>
        <path d="M60 50.2763H44.6625L43.605 38.4075H60V26.8163H30.9375L31.215 29.9288L34.0613 61.8675H60V50.2763ZM60 80.3775L59.9475 80.3925L47.04 76.9088L46.215 67.665H34.5787L36.2025 85.86L59.9475 92.4525L60 92.4375V80.3775Z" fill="#EBEBEB"/>
        <path d="M59.9587 50.2763V61.8675H74.2312L72.8887 76.9013L59.9587 80.3888V92.4488L83.7225 85.86L83.895 83.9025L86.6175 53.3888L86.9025 50.2763H59.9587ZM59.9587 26.8163V38.4075H87.9562L88.1887 35.805L88.7175 29.9288L88.995 26.8163H59.9587Z" fill="white"/>
    </g>

    <g id="jsSvg">
        <path d="M7.5 7.5H112.5V112.5H7.5V7.5Z" fill="#F5DE19"/>
        <path d="M78.0338 89.5312C78.9284 91.3485 80.3183 92.8759 82.0434 93.9375C83.7684 94.9991 85.7584 95.5515 87.7838 95.5313C91.8713 95.5313 94.485 93.4875 94.485 90.6562C94.485 87.2812 91.8 86.0738 87.3 84.105L84.8325 83.0475C77.7075 80.0138 72.9825 76.215 72.9825 68.1825C72.9825 60.7838 78.6075 55.1475 87.4313 55.1475C90.2877 54.9412 93.1416 55.5805 95.637 56.9856C98.1324 58.3907 100.159 60.4994 101.464 63.0488L93.75 67.98C93.2476 66.716 92.3728 65.6345 91.2416 64.879C90.1105 64.1236 88.7764 63.7298 87.4163 63.75C86.8229 63.6906 86.2236 63.7555 85.6567 63.9404C85.0897 64.1254 84.5675 64.4265 84.1234 64.8244C83.6792 65.2224 83.3228 65.7085 83.0769 66.2518C82.831 66.7951 82.7009 67.3837 82.695 67.98C82.695 70.9388 84.5288 72.1388 88.7625 73.98L91.23 75.0375C99.615 78.6338 104.355 82.2975 104.355 90.5363C104.355 99.42 97.3763 104.287 88.005 104.287C84.3537 104.52 80.713 103.691 77.5223 101.901C74.3317 100.11 71.7274 97.4342 70.0238 94.1963L78.0338 89.5312ZM43.1775 90.3863C44.7263 93.135 46.1363 95.46 49.5263 95.46C52.7663 95.46 54.8138 94.1925 54.8138 89.2612V55.71H64.68V89.3925C64.68 99.6075 58.68 104.257 49.9463 104.257C46.8591 104.426 43.7931 103.657 41.1513 102.051C38.5096 100.444 36.4157 98.0761 35.145 95.2575L43.1775 90.3863Z" fill="black"/>
    </g>

    <g id="tsSvg">
        <path d="M0 60V120H60H120V60V0H60H0V60Z" fill="#007ACC"/>
        <path d="M26.5373 60.3979L26.4992 65.3122H34.3087H42.1182L42.1182 87.5026V109.693H47.6421H53.1659V87.5026L53.1659 65.3122H60.9754H68.7849V60.4931C68.7849 57.8264 68.7278 55.5979 68.6516 55.5407C68.5944 55.4645 59.0897 55.4264 47.5659 55.4455L26.5944 55.5026L26.5373 60.3979Z" fill="white"/>
        <path d="M96.8265 55.3636C99.8741 56.1255 102.198 57.4779 104.331 59.6874C105.436 60.8684 107.074 63.0208 107.207 63.535C107.246 63.6874 102.026 67.1922 98.8646 69.1541C98.7503 69.2303 98.2931 68.7351 97.7789 67.9731C96.236 65.7255 94.6169 64.7541 92.1408 64.5827C88.5027 64.335 86.1598 66.2398 86.1789 69.4208C86.1789 70.3541 86.3122 70.9065 86.6931 71.6684C87.4931 73.3255 88.9789 74.316 93.6455 76.3351C102.236 80.0303 105.912 82.4684 108.198 85.935C110.75 89.8017 111.322 95.9731 109.588 100.564C107.684 105.554 102.96 108.945 96.3122 110.068C94.255 110.43 89.3789 110.373 87.1693 109.973C82.3503 109.116 77.7789 106.735 74.9598 103.611C73.855 102.392 71.7027 99.2112 71.836 98.9827C71.8931 98.9065 72.3884 98.6017 72.9408 98.2779C73.4741 97.9731 75.4931 96.8112 77.3979 95.7065L80.8455 93.7065L81.5693 94.7731C82.5789 96.316 84.7884 98.4303 86.1217 99.135C89.9503 101.154 95.2074 100.868 97.7979 98.5446C98.9027 97.535 99.3598 96.4874 99.3598 94.9446C99.3598 93.5541 99.1884 92.9446 98.4646 91.897C97.5312 90.5636 95.6265 89.4398 90.2169 87.097C84.0265 84.4303 81.3598 82.7731 78.9217 80.1446C77.5122 78.6208 76.1789 76.1827 75.6265 74.1446C75.1693 72.4493 75.055 68.2017 75.4169 66.4874C76.6931 60.5065 81.2074 56.335 87.7217 55.097C89.836 54.697 94.7503 54.8493 96.8265 55.3636Z" fill="white"/>
        <path d="M5.28391 147.824H1.34791V146.8H10.4039V147.824H6.46791V158H5.28391V147.824ZM18.2234 154.128V158H17.0554V154.128L12.5754 146.8H13.8394L17.6794 153.088L21.5194 146.8H22.7034L18.2234 154.128ZM30.6633 146.8C32.0926 146.8 33.2126 147.141 34.0233 147.824C34.834 148.507 35.2393 149.445 35.2393 150.64C35.2393 151.835 34.834 152.773 34.0233 153.456C33.2126 154.128 32.0926 154.464 30.6633 154.464H27.6553V158H26.4713V146.8H30.6633ZM30.6313 153.424C31.7406 153.424 32.5886 153.184 33.1753 152.704C33.762 152.213 34.0553 151.525 34.0553 150.64C34.0553 149.733 33.762 149.04 33.1753 148.56C32.5886 148.069 31.7406 147.824 30.6313 147.824H27.6553V153.424H30.6313ZM47.8855 156.976V158H39.9655V146.8H47.6455V147.824H41.1495V151.808H46.9415V152.816H41.1495V156.976H47.8855ZM55.9227 158.096C55.0907 158.096 54.2907 157.963 53.5227 157.696C52.7654 157.429 52.1787 157.077 51.7627 156.64L52.2267 155.728C52.632 156.133 53.1707 156.464 53.8427 156.72C54.5147 156.965 55.208 157.088 55.9227 157.088C56.9254 157.088 57.6774 156.907 58.1787 156.544C58.68 156.171 58.9307 155.691 58.9307 155.104C58.9307 154.656 58.792 154.299 58.5147 154.032C58.248 153.765 57.9174 153.563 57.5227 153.424C57.128 153.275 56.5787 153.115 55.8747 152.944C55.032 152.731 54.36 152.528 53.8587 152.336C53.3574 152.133 52.9254 151.829 52.5627 151.424C52.2107 151.019 52.0347 150.469 52.0347 149.776C52.0347 149.211 52.184 148.699 52.4827 148.24C52.7814 147.771 53.24 147.397 53.8587 147.12C54.4774 146.843 55.2454 146.704 56.1627 146.704C56.8027 146.704 57.4267 146.795 58.0347 146.976C58.6534 147.147 59.1867 147.387 59.6347 147.696L59.2347 148.64C58.7654 148.331 58.264 148.101 57.7307 147.952C57.1974 147.792 56.6747 147.712 56.1627 147.712C55.1814 147.712 54.44 147.904 53.9387 148.288C53.448 148.661 53.2027 149.147 53.2027 149.744C53.2027 150.192 53.336 150.555 53.6027 150.832C53.88 151.099 54.2214 151.307 54.6267 151.456C55.0427 151.595 55.5974 151.749 56.2907 151.92C57.112 152.123 57.7734 152.325 58.2747 152.528C58.7867 152.72 59.2187 153.019 59.5707 153.424C59.9227 153.819 60.0987 154.357 60.0987 155.04C60.0987 155.605 59.944 156.123 59.6347 156.592C59.336 157.051 58.872 157.419 58.2427 157.696C57.6134 157.963 56.84 158.096 55.9227 158.096ZM69.7085 158.096C68.5992 158.096 67.5965 157.851 66.7005 157.36C65.8152 156.869 65.1165 156.192 64.6045 155.328C64.1032 154.453 63.8525 153.477 63.8525 152.4C63.8525 151.323 64.1032 150.352 64.6045 149.488C65.1165 148.613 65.8205 147.931 66.7165 147.44C67.6125 146.949 68.6152 146.704 69.7245 146.704C70.5565 146.704 71.3245 146.843 72.0285 147.12C72.7325 147.397 73.3299 147.803 73.8205 148.336L73.0685 149.088C72.1939 148.203 71.0899 147.76 69.7565 147.76C68.8712 147.76 68.0659 147.963 67.3405 148.368C66.6152 148.773 66.0445 149.328 65.6285 150.032C65.2232 150.736 65.0205 151.525 65.0205 152.4C65.0205 153.275 65.2232 154.064 65.6285 154.768C66.0445 155.472 66.6152 156.027 67.3405 156.432C68.0659 156.837 68.8712 157.04 69.7565 157.04C71.1005 157.04 72.2045 156.592 73.0685 155.696L73.8205 156.448C73.3299 156.981 72.7272 157.392 72.0125 157.68C71.3085 157.957 70.5405 158.096 69.7085 158.096ZM86.1586 158L83.5986 154.4C83.3106 154.432 83.0119 154.448 82.7026 154.448H79.6946V158H78.5106V146.8H82.7026C84.1319 146.8 85.2519 147.141 86.0626 147.824C86.8733 148.507 87.2786 149.445 87.2786 150.64C87.2786 151.515 87.0546 152.256 86.6066 152.864C86.1693 153.461 85.5399 153.893 84.7186 154.16L87.4546 158H86.1586ZM82.6706 153.44C83.7799 153.44 84.6279 153.195 85.2146 152.704C85.8013 152.213 86.0946 151.525 86.0946 150.64C86.0946 149.733 85.8013 149.04 85.2146 148.56C84.6279 148.069 83.7799 147.824 82.6706 147.824H79.6946V153.44H82.6706ZM92.2392 146.8H93.4232V158H92.2392V146.8ZM103.425 146.8C104.855 146.8 105.975 147.141 106.785 147.824C107.596 148.507 108.001 149.445 108.001 150.64C108.001 151.835 107.596 152.773 106.785 153.456C105.975 154.128 104.855 154.464 103.425 154.464H100.417V158H99.2334V146.8H103.425ZM103.393 153.424C104.503 153.424 105.351 153.184 105.937 152.704C106.524 152.213 106.817 151.525 106.817 150.64C106.817 149.733 106.524 149.04 105.937 148.56C105.351 148.069 104.503 147.824 103.393 147.824H100.417V153.424H103.393ZM114.529 147.824H110.593V146.8H119.649V147.824H115.713V158H114.529V147.824Z" fill="#BDEBEA"/>
    </g>

    <g id="reactSvg">
        <g clip-path="url(#clip0_2_5870)">
            <path d="M92.9056 32.7028C91.7031 32.2887 90.4904 31.9051 89.2687 31.5524C89.4739 30.7107 89.6628 29.8792 89.8306 29.0624C92.5838 15.6484 90.7839 4.84184 84.6361 1.28381C78.7416 -2.12716 69.1016 1.42955 59.3659 9.93348C58.4064 10.7731 57.4682 11.6369 56.5522 12.524C55.9389 11.9341 55.3149 11.3556 54.6803 10.7889C44.4767 1.69623 34.2493 -2.13602 28.1081 1.43221C22.2189 4.8538 20.475 15.0127 22.9538 27.7254C23.2004 28.9845 23.4788 30.2371 23.7888 31.4819C22.3412 31.8948 20.9442 32.3342 19.6073 32.802C7.64443 36.9882 0.00476074 43.5483 0.00476074 50.353C0.00476074 57.3809 8.20629 64.4301 20.6662 68.7044C21.6763 69.0495 22.6949 69.3693 23.7209 69.6635C23.3877 71.0042 23.0918 72.3541 22.8337 73.7114C20.4706 86.2035 22.316 96.1224 28.1893 99.5223C34.2555 103.033 44.437 99.4248 54.3506 90.7268C55.1545 90.0197 55.9407 89.2925 56.7084 88.546C57.7004 89.5067 58.7189 90.4394 59.7627 91.343C69.366 99.6365 78.8502 102.985 84.7177 99.5763C90.7782 96.055 92.748 85.3995 90.1907 72.4357C89.9893 71.42 89.7634 70.4094 89.5132 69.4048C90.2282 69.1921 90.93 68.9733 91.6141 68.7456C104.567 64.4385 112.995 57.4748 112.995 50.353C112.995 43.5235 105.109 36.9191 92.9056 32.7028ZM90.0963 64.1474C89.4783 64.3525 88.8445 64.5506 88.1984 64.7433C86.7683 60.1996 84.8387 55.3684 82.4769 50.3764C84.7305 45.5036 86.586 40.7341 87.9759 36.2201C89.1319 36.5558 90.2534 36.9098 91.3347 37.2832C101.791 40.8962 108.169 46.2372 108.169 50.353C108.169 54.7367 101.281 60.4277 90.0963 64.1474ZM85.4557 73.3765C86.5865 79.1087 86.7476 84.2916 85.9986 88.3436C85.3259 91.9845 83.9727 94.4116 82.299 95.3839C78.7385 97.4526 71.1235 94.7637 62.911 87.6707C61.9401 86.8305 60.9927 85.9634 60.0699 85.0704C63.2539 81.5757 66.4358 77.5131 69.5412 73.0009C75.0036 72.5145 80.1641 71.7189 84.844 70.6332C85.0694 71.5426 85.2734 72.4574 85.4557 73.3765ZM38.5257 95.0264C35.0469 96.2592 32.2759 96.2947 30.6009 95.3254C27.0369 93.2625 25.5552 85.2981 27.5762 74.6151C27.8165 73.3527 28.0916 72.0973 28.4012 70.8502C33.0294 71.8779 38.1523 72.6168 43.6275 73.0625C46.7542 77.4777 50.0278 81.5358 53.3271 85.0894C52.6259 85.7704 51.9082 86.4339 51.1745 87.0793C46.7904 90.9253 42.3974 93.6541 38.5257 95.0264ZM22.2277 64.1204C16.7181 62.2302 12.168 59.7739 9.04931 57.0934C6.24661 54.6849 4.83202 52.2932 4.83202 50.353C4.83202 46.2235 10.9657 40.9564 21.1962 37.3767C22.4378 36.9426 23.7372 36.5328 25.0856 36.1483C26.4997 40.7642 28.3544 45.5905 30.5926 50.4708C28.3252 55.4233 26.4441 60.3267 25.0163 64.9971C24.0798 64.7278 23.15 64.4355 22.2277 64.1204ZM27.691 26.7947C25.5676 15.9031 26.9777 7.68712 30.5268 5.62504C34.3067 3.42873 42.6653 6.56017 51.4755 14.4116C52.05 14.9247 52.6152 15.4483 53.1708 15.982C49.8879 19.5201 46.6443 23.5481 43.5454 27.9372C38.2313 28.4315 33.1446 29.2254 28.4678 30.289C28.1797 29.1311 27.9206 27.9661 27.691 26.7952V26.7947ZM76.4301 38.874C75.3255 36.9589 74.1799 35.068 72.9941 33.2025C76.5992 33.6601 80.0533 34.2674 83.297 35.0098C82.3233 38.1426 81.1095 41.4176 79.6808 44.7754C78.6365 42.7867 77.5527 40.8192 76.4301 38.874ZM56.5544 19.4443C58.7806 21.8652 61.0104 24.5679 63.2036 27.5004C58.7546 27.2895 54.2982 27.2886 49.8491 27.4977C52.0445 24.5922 54.2932 21.8931 56.5544 19.4443ZM36.5511 38.9072C35.4425 40.8368 34.3789 42.792 33.3613 44.7714C31.956 41.4255 30.7532 38.1355 29.7712 34.9584C32.9949 34.2346 36.4328 33.6428 40.0149 33.1936C38.8159 35.0705 37.661 36.9754 36.5511 38.9067V38.9072ZM40.1178 67.857C36.4169 67.4424 32.9274 66.8811 29.7045 66.1768C30.702 62.943 31.9312 59.583 33.367 56.1653C34.3887 58.1462 35.4567 60.1026 36.57 62.0331C37.7149 64.0177 38.9005 65.9615 40.1178 67.857ZM56.6877 81.6027C54.3996 79.1256 52.1177 76.3848 49.8892 73.4372C52.0528 73.5223 54.2584 73.5657 56.5001 73.5657C58.8031 73.5657 61.0797 73.5139 63.3206 73.4138C61.1203 76.4145 58.8989 79.1592 56.6877 81.6027ZM79.7263 55.9908C81.2366 59.4461 82.5096 62.7884 83.5203 65.9668C80.2444 66.7172 76.7073 67.3214 72.9804 67.7702C74.1746 65.87 75.3311 63.9462 76.4491 61.9999C77.5858 60.0215 78.6784 58.018 79.7263 55.9908ZM72.268 59.5794C70.5565 62.5635 68.7487 65.491 66.8475 68.3571C63.4038 68.6019 59.9525 68.7235 56.5001 68.7217C52.9837 68.7217 49.5635 68.6118 46.27 68.3974C44.3193 65.5379 42.477 62.6053 40.7472 59.606H40.7476C39.0259 56.6225 37.4177 53.5745 35.9265 50.4686C37.4139 47.3619 39.0172 44.3125 40.733 41.3268L40.7326 41.3272C42.4478 38.3407 44.2753 35.4207 46.2113 32.5734C49.5715 32.3183 53.0172 32.1854 56.4996 32.1854H56.5001C59.9984 32.1854 63.4486 32.3196 66.8078 32.5765C68.7243 35.4195 70.5402 38.3295 72.2521 41.3011C73.9736 44.2802 75.5982 47.3148 77.1231 50.3999C75.6138 53.5166 73.9944 56.5784 72.268 59.5794ZM82.2253 5.48062C86.0087 7.67073 87.4803 16.5025 85.103 28.0842C84.9512 28.8231 84.7808 29.5758 84.5955 30.339C79.9072 29.2528 74.8169 28.4453 69.4874 27.9434C66.3828 23.506 63.1656 19.4718 59.9361 15.9793C60.7825 15.1605 61.6491 14.3628 62.5349 13.5872C70.8768 6.30147 78.6732 3.42474 82.2253 5.48062ZM56.5001 40.2264C62.0724 40.2264 66.5898 44.7603 66.5898 50.353C66.5898 55.9456 62.0724 60.4796 56.5001 60.4796C50.9278 60.4796 46.4104 55.9456 46.4104 50.353C46.4104 44.7603 50.9278 40.2264 56.5001 40.2264Z" fill="#00D8FF"/>
        </g>
        <defs>
            <clipPath id="clip0_2_5870">
                <rect width="113" height="101" fill="white"/>
            </clipPath>
        </defs>
    </g>

    <g id="sassSvg">
        <g clip-path="url(#clip0_2_5872)">
            <path d="M100.673 50.0767C96.603 50.0975 93.0653 51.0695 90.1035 52.5064C89.0162 50.3721 87.9295 48.4708 87.738 47.0761C87.5246 45.4494 87.2691 44.4561 87.5246 42.5122C87.7805 40.5683 88.9312 37.8002 88.9098 37.589C88.8887 37.3779 88.6538 36.3846 86.3098 36.3638C83.9658 36.3425 81.9413 36.8074 81.7068 37.42C81.4724 38.0326 81.025 39.4274 80.7266 40.8638C80.3216 42.9771 76.0386 50.5199 73.5881 54.4711C72.7993 52.9291 72.1174 51.5765 71.968 50.499C71.755 48.8723 71.4991 47.879 71.755 45.9351C72.0109 43.9912 73.1617 41.2235 73.1402 41.0119C73.1187 40.8008 72.8843 39.8075 70.5403 39.7867C68.1958 39.7654 66.1713 40.2303 65.9373 40.8429C65.7029 41.456 65.4469 42.8924 64.957 44.2871C64.4667 45.6818 58.7769 58.2751 57.2852 61.5285C56.6824 62.8454 56.0501 64.1487 55.3886 65.4376C55.3886 65.4376 55.3672 65.5011 55.3032 65.6067C55.0954 66.0108 54.8824 66.4123 54.6643 66.8111V66.8319C54.3444 67.4028 54.0035 67.9307 53.833 67.9307C53.705 67.9307 53.4706 66.4096 53.8755 64.3388C54.7278 59.9652 56.7524 53.1616 56.7313 52.9291C56.7313 52.8022 57.1148 51.6191 55.4101 51.0061C53.7475 50.3934 53.1511 51.4075 53.0017 51.4075C52.8527 51.4075 52.7458 51.7669 52.7458 51.7669C52.7458 51.7669 54.6003 44.1181 49.2085 44.1181C45.8417 44.1181 41.1958 47.7735 38.8943 51.0695C36.278 52.4812 33.6639 53.8969 31.052 55.3166C29.7953 56.014 28.4951 56.7114 27.2803 57.3661C27.1949 57.2818 27.1099 57.1758 27.0244 57.0915C20.5034 50.1823 8.442 45.3012 8.95339 36.0257C9.14534 32.645 10.3171 23.7705 32.1178 12.9948C50.0608 4.22589 64.3392 6.65555 66.8111 12.0437C70.3484 19.735 59.1608 34.0184 40.6204 36.0887C33.5455 36.8708 29.8373 34.1661 28.9 33.152C27.9197 32.0953 27.7703 32.0319 27.4079 32.2435C26.8115 32.5607 27.1949 33.5114 27.4079 34.0605C27.9622 35.497 30.2422 38.0326 34.0994 39.2796C37.5091 40.378 45.7988 40.9911 55.8361 37.1454C67.0666 32.8348 75.8466 20.8547 73.2682 10.8184C70.6893 0.633969 53.641 -2.7255 37.5091 2.95805C27.9197 6.33927 17.52 11.6635 10.0402 18.594C1.15363 26.8341 -0.253039 33.9971 0.322334 36.9977C2.38984 47.6466 17.2006 54.5771 23.1248 59.7115C22.8263 59.8805 22.5489 60.0287 22.3149 60.1556C19.3526 61.6133 8.05811 67.4658 5.24523 73.6569C2.04891 80.6717 5.75708 85.7009 8.20756 86.3765C15.8154 88.4686 23.6362 84.7077 27.8342 78.4953C32.0323 72.2834 31.5209 64.2119 29.5818 60.5144C29.5604 60.4723 29.5393 60.4297 29.4964 60.3876C30.2637 59.9439 31.052 59.479 31.8194 59.0354C33.2296 58.2088 34.6578 57.4127 36.1029 56.6475C35.3781 58.6127 34.8452 60.958 34.5897 64.3388C34.2698 68.3114 35.9105 73.4666 38.063 75.4947C39.0223 76.3829 40.1515 76.4037 40.8763 76.4037C43.3908 76.4037 44.5205 74.3329 45.7778 71.882C47.3119 68.8818 48.6971 65.3955 48.6971 65.3955C48.6971 65.3955 46.971 74.8191 51.6595 74.8191C53.3641 74.8191 55.0902 72.6215 55.8575 71.5018V71.5227C55.8575 71.5227 55.9 71.4592 55.9855 71.3115C56.156 71.0369 56.2624 70.8674 56.2624 70.8674V70.8257C56.9443 69.6422 58.4789 66.9588 60.7589 62.5005C63.6998 56.7535 66.5342 49.5697 66.5342 49.5697C66.5342 49.5697 66.7901 51.3232 67.6634 54.2391C68.1753 55.9506 69.2401 57.831 70.0929 59.6481C69.411 60.5992 68.9846 61.1271 68.9846 61.1271L69.0061 61.1484C68.4518 61.8666 67.8554 62.6482 67.1945 63.4095C64.8716 66.1558 62.1016 69.3046 61.7178 70.2127C61.2699 71.2902 61.3768 72.0723 62.2296 72.7062C62.8475 73.1711 63.9553 73.2341 65.085 73.1711C67.1735 73.0229 68.6437 72.5159 69.3681 72.1992C70.4978 71.7977 71.819 71.1846 73.0548 70.2761C75.3352 68.6068 76.72 66.2193 76.5925 63.0714C76.5285 61.3387 75.9531 59.6059 75.2498 57.9787C75.4632 57.6833 75.6547 57.3874 75.8681 57.0915C79.4693 51.8724 82.2612 46.1463 82.2612 46.1463C82.2612 46.1463 82.5171 47.8999 83.3905 50.8162C83.8168 52.2952 84.6907 53.9011 85.4575 55.4644C82.0693 58.1904 79.9807 61.3595 79.2349 63.4303C77.8926 67.276 78.9365 69.0083 80.9185 69.4097C81.8133 69.6 83.092 69.1773 84.0298 68.7758C85.2231 68.3956 86.6297 67.7409 87.9724 66.7685C90.2529 65.0996 92.4474 62.7751 92.3195 59.6272C92.2555 58.1904 91.8721 56.7743 91.3392 55.4009C94.2161 54.2183 97.9242 53.563 102.655 54.1122C112.799 55.2953 114.802 61.5707 114.418 64.2124C114.035 66.8532 111.904 68.2901 111.201 68.7337C110.497 69.1777 110.263 69.3254 110.327 69.6422C110.412 70.1071 110.753 70.0862 111.35 70.0015C112.181 69.8538 116.678 67.8673 116.869 63.0075C117.189 56.7956 111.222 50.0133 100.673 50.0767ZM22.4214 76.2347C19.0542 79.8688 14.3662 81.2422 12.3417 80.0804C10.1681 78.8334 11.0204 73.4666 15.1545 69.6213C17.669 67.276 20.9083 65.0992 23.0608 63.7683C23.5507 63.4724 24.2755 63.0501 25.1493 62.5218C25.2983 62.437 25.3838 62.3949 25.3838 62.3949L25.8952 62.0777C27.4078 67.5714 25.9591 72.4103 22.4214 76.2347ZM46.9285 59.7115C45.7563 62.5431 43.3058 69.7904 41.8141 69.3889C40.5354 69.0509 39.7466 63.5572 41.5582 58.1269C42.4745 55.4009 44.4136 52.147 45.5433 50.8796C47.3759 48.851 49.4005 48.1745 49.8904 48.9992C50.5087 50.0767 47.6529 57.9366 46.9285 59.7115ZM67.152 69.3042C66.6617 69.5579 66.1932 69.7269 65.9798 69.6C65.8308 69.5153 66.1932 69.1773 66.1932 69.1773C66.1932 69.1773 68.7292 66.473 69.7305 65.2473C70.3063 64.5291 70.9877 63.684 71.7125 62.7329V63.0075C71.7125 66.2406 68.5583 68.4169 67.1516 69.3042H67.152ZM82.7511 65.7757C82.3887 65.5219 82.4527 64.6768 83.6674 62.0356C84.1363 61.0002 85.2441 59.2679 87.1411 57.5986C87.3541 58.2746 87.5035 58.9299 87.4821 59.5425C87.4606 63.6206 84.5202 65.1417 82.7511 65.7757Z" fill="#CD6799"/>
        </g>
        <defs>
            <clipPath id="clip0_2_5872">
                <rect width="117" height="87" fill="white"/>
            </clipPath>
        </defs>
    </g>


</svg>
